<svg version="1.1" id="Layer_1" xmlns="http://www.w3.org/2000/svg" xmlns:xlink="http://www.w3.org/1999/xlink" x="0px" y="0px"
	 width="100%" viewBox="0 0 512 512" enable-background="new 0 0 512 512" xml:space="preserve">
<path fill="#D80027" opacity="1.000000" stroke="none" 
	d="
M228.000000,1.000000 
	C245.354233,1.000000 262.708466,1.000000 280.344116,1.351296 
	C283.845398,2.190463 287.065247,2.678335 290.289185,3.624687 
	C290.293274,77.139938 290.293274,150.196716 290.293274,223.706482 
	C364.304382,223.706482 437.568390,223.706482 510.914368,224.097687 
	C511.664246,224.992599 512.332153,225.496292 513.000000,226.000000 
	C513.000000,246.687561 513.000000,267.375122 512.665894,288.317566 
	C511.831970,289.144867 511.332245,289.717316 510.374146,290.294739 
	C436.850922,290.299744 363.786102,290.299744 290.283325,290.299744 
	C290.283325,364.291229 290.283325,437.562469 289.918549,510.976013 
	C289.369202,511.745544 289.184601,512.372803 289.000000,513.000000 
	C267.979095,513.000000 246.958206,513.000000 225.683685,512.666992 
	C224.858780,511.833893 224.287521,511.333893 223.712341,510.375427 
	C223.708435,436.852692 223.708435,363.788422 223.708435,290.287811 
	C149.710556,290.287811 76.439087,290.287811 3.025065,289.922852 
	C2.255001,289.371918 1.627498,289.185974 0.999997,289.000000 
	C1.000000,267.979095 1.000000,246.958206 1.334303,225.682281 
	C2.168393,224.854813 2.668180,224.282410 3.626314,223.704926 
	C77.141998,223.699844 150.199326,223.699844 223.717026,223.699844 
	C223.717026,149.693695 223.717026,76.429977 224.133606,3.097483 
	C225.700134,2.352467 226.850067,1.676233 228.000000,1.000000 
z"/>
<path fill="#000000" opacity="1.000000" stroke="none" 
	d="
M513.000000,225.531342 
	C512.332153,225.496292 511.664246,224.992599 510.971680,223.676712 
	C508.760803,211.623825 506.574615,200.383148 504.223694,188.768982 
	C498.829041,174.511475 494.763794,160.033997 488.069641,146.895981 
	C479.986115,131.031174 469.674103,116.301834 460.179688,100.742538 
	C452.678894,92.198830 445.325012,83.993629 437.813751,75.498039 
	C432.383301,70.500183 427.110199,65.792717 421.853882,60.735233 
	C418.889801,58.153946 415.908966,55.922676 412.763550,53.407310 
	C411.168365,52.347881 409.629425,51.722008 408.323547,50.774796 
	C388.865692,36.660812 368.091064,25.012112 345.372711,16.976585 
	C338.527191,14.555317 331.682648,12.131365 324.580627,9.443142 
	C323.223206,8.954153 322.127380,8.704209 321.021637,8.511297 
	C310.777100,6.723998 300.530823,4.946528 290.285065,3.166205 
	C287.065247,2.678335 283.845398,2.190463 280.812805,1.351296 
	C358.259247,1.000000 435.518524,1.000000 513.000000,1.000000 
	C513.000000,75.687416 513.000000,150.375046 513.000000,225.531342 
z"/>
<path fill="#000000" opacity="1.000000" stroke="none" 
	d="
M227.531342,1.000000 
	C226.850067,1.676233 225.700134,2.352467 223.712799,3.040840 
	C211.635284,5.262858 200.395157,7.472737 188.781555,9.821098 
	C172.802246,16.012896 156.660828,20.991983 141.744888,28.429005 
	C127.521507,35.520729 114.575783,45.174992 100.725769,53.835999 
	C92.189537,61.319366 83.995911,68.669464 75.502655,76.144104 
	C70.434341,81.494217 65.665649,86.719772 60.577339,92.070778 
	C58.074238,95.153610 55.890759,98.111008 53.408760,101.191177 
	C32.805595,127.696060 18.146900,156.870956 9.428994,189.382217 
	C8.957557,190.758179 8.716855,191.857559 8.523397,192.965210 
	C6.733611,203.212662 4.951971,213.461533 3.167967,223.709991 
	C2.668180,224.282410 2.168393,224.854813 1.334303,225.213623 
	C1.000000,150.405807 1.000000,75.811607 1.000000,1.000000 
	C76.354088,1.000000 151.708389,1.000000 227.531342,1.000000 
z"/>
<path fill="#000000" opacity="1.000000" stroke="none" 
	d="
M223.716263,510.833862 
	C224.287521,511.333893 224.858780,511.833893 225.215027,512.666992 
	C150.406296,513.000000 75.812599,513.000000 1.000000,513.000000 
	C1.000000,438.645905 1.000000,364.291626 0.999997,289.468689 
	C1.627498,289.185974 2.255001,289.371918 2.967435,290.344269 
	C5.260909,302.384033 7.469453,313.637390 9.804615,325.282715 
	C10.580373,328.031158 11.197084,330.397156 11.883739,332.742645 
	C17.934368,353.410767 26.794521,372.856018 38.104988,391.125732 
	C42.799824,398.709290 48.477520,405.684387 53.838535,413.279541 
	C61.326077,421.827393 68.683350,430.031891 76.165970,438.530640 
	C81.518036,443.594971 86.744736,448.365051 92.095978,453.452362 
	C95.167824,455.945648 98.115135,458.121704 101.187790,460.595459 
	C102.750290,461.967957 104.181641,463.050598 105.625473,464.116364 
	C130.929459,482.794617 158.722916,496.308319 189.437164,504.588989 
	C190.824951,505.047363 191.913300,505.324402 193.016449,505.516388 
	C203.248260,507.297241 213.482635,509.063416 223.716263,510.833862 
z"/>
<path fill="#000000" opacity="1.000000" stroke="none" 
	d="
M289.468658,513.000000 
	C289.184601,512.372803 289.369202,511.745544 290.340393,511.033081 
	C302.369202,508.756226 313.611420,506.564575 325.241699,504.223969 
	C327.984802,503.424164 330.348358,502.802338 332.693634,502.117920 
	C353.378510,496.081451 372.815765,487.177582 391.111694,475.899384 
	C398.704498,471.218964 405.678131,465.534027 413.274658,460.169128 
	C421.818054,452.676575 430.020142,445.320831 438.517639,437.839478 
	C443.588898,432.482269 448.364716,427.250641 453.455444,421.890839 
	C455.950165,418.818909 458.130005,415.875183 460.605774,412.806854 
	C461.755096,411.492310 462.582825,410.282990 463.465759,409.115326 
	C482.663269,383.727234 496.156219,355.569611 504.602356,324.558685 
	C504.934845,323.279510 505.008209,322.290405 505.183990,321.319794 
	C507.057495,310.974792 508.947235,300.632690 510.832520,290.289795 
	C511.332245,289.717316 511.831970,289.144867 512.665894,288.786194 
	C513.000000,363.593719 513.000000,438.187408 513.000000,513.000000 
	C438.645905,513.000000 364.291626,513.000000 289.468658,513.000000 
z"/>
<path fill="#EEECED" opacity="1.000000" stroke="none" 
	d="
M438.222229,437.965088 
	C430.020142,445.320831 421.818054,452.676575 413.013733,459.948181 
	C383.043274,430.727448 353.675110,401.590881 324.025543,372.175171 
	C323.963226,373.223633 323.876892,373.999603 323.876770,374.775574 
	C323.869354,416.592651 323.859711,458.409760 323.909668,500.226776 
	C323.911316,501.609192 324.525146,502.990906 324.853638,504.372925 
	C313.611420,506.564575 302.369202,508.756226 290.705139,510.890808 
	C290.283325,437.562469 290.283325,364.291229 290.283325,290.299744 
	C363.786102,290.299744 436.850922,290.299744 510.374146,290.294769 
	C508.947235,300.632690 507.057495,310.974792 505.183990,321.319794 
	C505.008209,322.290405 504.934845,323.279510 504.296814,324.214294 
	C502.791656,324.073822 501.803680,323.896484 500.815613,323.896149 
	C458.877533,323.882599 416.939484,323.883331 375.001404,323.895050 
	C374.108521,323.895294 373.215698,324.044312 371.868225,324.164459 
	C401.653534,354.059326 430.981720,383.495392 460.309875,412.931458 
	C458.130005,415.875183 455.950165,418.818909 453.291992,421.591125 
	C421.053101,389.627045 389.296997,357.830078 357.509094,326.064972 
	C356.620392,325.176910 355.401367,324.033600 354.319855,324.015808 
	C344.610931,323.856384 334.898254,323.922760 324.222992,323.922760 
	C326.098755,325.927643 327.166412,327.135559 328.303589,328.274048 
	C341.713287,341.699066 355.119843,355.127380 368.553802,368.528168 
	C391.766724,391.683655 414.998413,414.820435 438.222229,437.965088 
z"/>
<path fill="#EEECED" opacity="1.000000" stroke="none" 
	d="
M101.062454,460.297729 
	C98.115135,458.121704 95.167824,455.945648 92.396805,453.290497 
	C124.369316,421.048309 156.169891,389.289612 187.939011,357.499512 
	C188.828247,356.609680 189.978897,355.393188 189.996719,354.312347 
	C190.156799,344.603760 190.090195,334.891418 190.090195,324.169189 
	C187.954559,326.196320 186.635757,327.392822 185.377869,328.650238 
	C157.004639,357.012634 128.628693,385.372314 100.276115,413.755341 
	C92.161034,421.879150 84.117157,430.074066 76.040619,438.236359 
	C68.683350,430.031891 61.326077,421.827393 54.057350,413.017792 
	C83.284729,383.056671 112.423561,353.700684 141.866287,324.038513 
	C140.775070,323.975525 140.000504,323.891815 139.225937,323.891663 
	C97.418152,323.884430 55.610352,323.874664 13.802633,323.925781 
	C12.427365,323.927460 11.052861,324.554993 9.677999,324.890808 
	C7.469453,313.637390 5.260909,302.384033 3.109995,290.709229 
	C76.439087,290.287811 149.710556,290.287811 223.708435,290.287811 
	C223.708435,363.788422 223.708435,436.852692 223.712341,510.375427 
	C213.482635,509.063416 203.248260,507.297241 193.016449,505.516388 
	C191.913300,505.324402 190.824951,505.047363 189.781403,504.285950 
	C189.932648,502.608551 190.118881,501.454987 190.119278,500.301361 
	C190.133789,458.529358 190.132553,416.757385 190.120071,374.985382 
	C190.119812,374.094391 189.962677,373.203430 189.828705,371.781738 
	C159.911789,401.614319 130.487137,430.956055 101.062454,460.297729 
z"/>
<path fill="#EEEDEE" opacity="1.000000" stroke="none" 
	d="
M290.289185,3.624685 
	C300.530823,4.946528 310.777100,6.723998 321.021637,8.511297 
	C322.127380,8.704209 323.223206,8.954153 324.233154,9.729403 
	C324.051666,11.103126 323.881256,11.925066 323.881012,12.747054 
	C323.868805,55.015652 323.869537,97.284256 323.884216,139.552856 
	C323.884460,140.277634 324.071808,141.002350 324.209656,142.000824 
	C354.023468,112.324409 383.475769,83.007866 412.928101,53.691368 
	C415.908966,55.922676 418.889801,58.153946 421.557159,60.857651 
	C389.541412,93.011017 357.832703,124.685593 326.166260,156.402359 
	C325.178070,157.392136 323.995544,158.806168 323.972076,160.042694 
	C323.790314,169.614792 323.871826,179.191895 323.871826,189.808151 
	C325.969025,187.862579 327.291565,186.712997 328.528015,185.477249 
	C355.752655,158.268051 382.978455,131.059982 410.178772,103.826454 
	C419.478180,94.515701 428.708984,85.136406 437.971130,75.788429 
	C445.325012,83.993629 452.678894,92.198830 459.958435,101.003906 
	C430.783020,130.680695 401.681335,159.757004 372.596649,188.850357 
	C372.437805,189.009262 372.518433,189.407623 372.456085,189.980118 
	C373.247345,190.025742 374.023773,190.109558 374.800201,190.109695 
	C416.611328,190.116699 458.422455,190.126007 500.233521,190.076309 
	C501.618866,190.074677 503.003448,189.467407 504.388397,189.142456 
	C506.574615,200.383148 508.760803,211.623825 510.889709,223.285492 
	C437.568390,223.706482 364.304382,223.706482 290.293274,223.706482 
	C290.293274,150.196716 290.293274,77.139938 290.289185,3.624685 
z"/>
<path fill="#EEEDEE" opacity="1.000000" stroke="none" 
	d="
M53.707283,101.068398 
	C55.890759,98.111008 58.074238,95.153610 60.719078,92.381836 
	C92.952003,124.368797 124.719131,156.174576 156.518143,187.948456 
	C157.406876,188.836502 158.627075,189.978088 159.709213,189.995850 
	C169.419464,190.155167 179.133423,190.088852 189.883560,190.088852 
	C187.855911,187.942429 186.668503,186.621872 185.414764,185.367630 
	C156.340424,156.281906 127.267883,127.194382 98.172478,98.129745 
	C90.755135,90.720253 83.261093,83.387543 75.802284,76.019554 
	C83.995911,68.669464 92.189537,61.319366 100.990776,54.050972 
	C130.950668,83.272385 160.302933,112.412086 189.965576,141.859909 
	C190.033646,140.775650 190.124329,140.004105 190.124466,139.232574 
	C190.132019,97.431190 190.141327,55.629799 190.091568,13.828473 
	C190.089920,12.446151 189.480927,11.064550 189.155029,9.682614 
	C200.395157,7.472737 211.635284,5.262858 223.296219,3.109623 
	C223.717026,76.429977 223.717026,149.693695 223.717026,223.699844 
	C150.199326,223.699844 77.141998,223.699844 3.626315,223.704926 
	C4.951971,213.461533 6.733611,203.212662 8.523397,192.965210 
	C8.716855,191.857559 8.957557,190.758179 9.716519,189.735626 
	C11.409776,189.916702 12.562829,190.104477 13.715948,190.104874 
	C55.485851,190.119293 97.255760,190.117798 139.025665,190.105270 
	C139.917511,190.105011 140.809311,189.949936 142.142822,189.826050 
	C112.364792,159.939545 83.036034,130.503967 53.707283,101.068398 
z"/>
<path fill="#0052B4" opacity="1.000000" stroke="none" 
	d="
M504.223694,188.768982 
	C503.003448,189.467407 501.618866,190.074677 500.233521,190.076309 
	C458.422455,190.126007 416.611328,190.116699 374.800201,190.109695 
	C374.023773,190.109558 373.247345,190.025742 372.456085,189.980118 
	C372.518433,189.407623 372.437805,189.009262 372.596649,188.850357 
	C401.681335,159.757004 430.783020,130.680695 460.105347,101.342422 
	C469.674103,116.301834 479.986115,131.031174 488.069641,146.895981 
	C494.763794,160.033997 498.829041,174.511475 504.223694,188.768982 
z"/>
<path fill="#0052B4" opacity="1.000000" stroke="none" 
	d="
M412.763489,53.407272 
	C383.475769,83.007866 354.023468,112.324409 324.209656,142.000824 
	C324.071808,141.002350 323.884460,140.277634 323.884216,139.552856 
	C323.869537,97.284256 323.868805,55.015652 323.881012,12.747054 
	C323.881256,11.925066 324.051666,11.103126 324.490173,9.994903 
	C331.682648,12.131365 338.527191,14.555317 345.372711,16.976585 
	C368.091064,25.012112 388.865692,36.660812 408.323547,50.774796 
	C409.629425,51.722008 411.168365,52.347881 412.763489,53.407272 
z"/>
<path fill="#D8052B" opacity="1.000000" stroke="none" 
	d="
M437.813751,75.498039 
	C428.708984,85.136406 419.478180,94.515701 410.178772,103.826454 
	C382.978455,131.059982 355.752655,158.268051 328.528015,185.477249 
	C327.291565,186.712997 325.969025,187.862579 323.871826,189.808151 
	C323.871826,179.191895 323.790314,169.614792 323.972076,160.042694 
	C323.995544,158.806168 325.178070,157.392136 326.166260,156.402359 
	C357.832703,124.685593 389.541412,93.011017 421.540405,61.207664 
	C427.110199,65.792717 432.383301,70.500183 437.813751,75.498039 
z"/>
<path fill="#0052B4" opacity="1.000000" stroke="none" 
	d="
M53.408760,101.191177 
	C83.036034,130.503967 112.364792,159.939545 142.142822,189.826050 
	C140.809311,189.949936 139.917511,190.105011 139.025665,190.105270 
	C97.255760,190.117798 55.485851,190.119293 13.715948,190.104874 
	C12.562829,190.104477 11.409776,189.916702 9.969167,189.462891 
	C18.146900,156.870956 32.805595,127.696060 53.408760,101.191177 
z"/>
<path fill="#0052B4" opacity="1.000000" stroke="none" 
	d="
M188.781555,9.821098 
	C189.480927,11.064550 190.089920,12.446151 190.091568,13.828473 
	C190.141327,55.629799 190.132019,97.431190 190.124466,139.232574 
	C190.124329,140.004105 190.033646,140.775650 189.965576,141.859909 
	C160.302933,112.412086 130.950668,83.272385 101.333389,53.917702 
	C114.575783,45.174992 127.521507,35.520729 141.744888,28.429005 
	C156.660828,20.991983 172.802246,16.012896 188.781555,9.821098 
z"/>
<path fill="#D8052B" opacity="1.000000" stroke="none" 
	d="
M75.502655,76.144104 
	C83.261093,83.387543 90.755135,90.720253 98.172478,98.129745 
	C127.267883,127.194382 156.340424,156.281906 185.414764,185.367630 
	C186.668503,186.621872 187.855911,187.942429 189.883560,190.088852 
	C179.133423,190.088852 169.419464,190.155167 159.709213,189.995850 
	C158.627075,189.978088 157.406876,188.836502 156.518143,187.948456 
	C124.719131,156.174576 92.952003,124.368797 61.038700,92.256393 
	C65.665649,86.719772 70.434341,81.494217 75.502655,76.144104 
z"/>
<path fill="#0152B4" opacity="1.000000" stroke="none" 
	d="
M9.804616,325.282745 
	C11.052861,324.554993 12.427365,323.927460 13.802633,323.925781 
	C55.610352,323.874664 97.418152,323.884430 139.225937,323.891663 
	C140.000504,323.891815 140.775070,323.975525 141.866287,324.038513 
	C112.423561,353.700684 83.284729,383.056671 53.927082,412.674408 
	C48.477520,405.684387 42.799824,398.709290 38.104988,391.125732 
	C26.794521,372.856018 17.934368,353.410767 11.883739,332.742645 
	C11.197084,330.397156 10.580373,328.031158 9.804616,325.282745 
z"/>
<path fill="#0052B4" opacity="1.000000" stroke="none" 
	d="
M101.187805,460.595459 
	C130.487137,430.956055 159.911789,401.614319 189.828705,371.781738 
	C189.962677,373.203430 190.119812,374.094391 190.120071,374.985382 
	C190.132553,416.757385 190.133789,458.529358 190.119278,500.301361 
	C190.118881,501.454987 189.932648,502.608551 189.488831,504.065186 
	C158.722916,496.308319 130.929459,482.794617 105.625473,464.116364 
	C104.181641,463.050598 102.750290,461.967957 101.187805,460.595459 
z"/>
<path fill="#D80128" opacity="1.000000" stroke="none" 
	d="
M76.165970,438.530640 
	C84.117157,430.074066 92.161034,421.879150 100.276115,413.755341 
	C128.628693,385.372314 157.004639,357.012634 185.377869,328.650238 
	C186.635757,327.392822 187.954559,326.196320 190.090195,324.169189 
	C190.090195,334.891418 190.156799,344.603760 189.996719,354.312347 
	C189.978897,355.393188 188.828247,356.609680 187.939011,357.499512 
	C156.169891,389.289612 124.369316,421.048309 92.272263,452.973236 
	C86.744736,448.365051 81.518036,443.594971 76.165970,438.530640 
z"/>
<path fill="#0052B4" opacity="1.000000" stroke="none" 
	d="
M460.605774,412.806824 
	C430.981720,383.495392 401.653534,354.059326 371.868225,324.164459 
	C373.215698,324.044312 374.108521,323.895294 375.001404,323.895050 
	C416.939484,323.883331 458.877533,323.882599 500.815613,323.896149 
	C501.803680,323.896484 502.791656,324.073822 504.085266,324.512939 
	C496.156219,355.569611 482.663269,383.727234 463.465759,409.115326 
	C462.582825,410.282990 461.755096,411.492310 460.605774,412.806824 
z"/>
<path fill="#0052B4" opacity="1.000000" stroke="none" 
	d="
M325.241699,504.223999 
	C324.525146,502.990906 323.911316,501.609192 323.909668,500.226776 
	C323.859711,458.409760 323.869354,416.592651 323.876770,374.775574 
	C323.876892,373.999603 323.963226,373.223633 324.025543,372.175171 
	C353.675110,401.590881 383.043274,430.727448 412.672394,460.084961 
	C405.678131,465.534027 398.704498,471.218964 391.111694,475.899384 
	C372.815765,487.177582 353.378510,496.081451 332.693634,502.117920 
	C330.348358,502.802338 327.984802,503.424164 325.241699,504.223999 
z"/>
<path fill="#D80128" opacity="1.000000" stroke="none" 
	d="
M438.517639,437.839478 
	C414.998413,414.820435 391.766724,391.683655 368.553802,368.528168 
	C355.119843,355.127380 341.713287,341.699066 328.303589,328.274048 
	C327.166412,327.135559 326.098755,325.927643 324.222992,323.922760 
	C334.898254,323.922760 344.610931,323.856384 354.319855,324.015808 
	C355.401367,324.033600 356.620392,325.176910 357.509094,326.064972 
	C389.296997,357.830078 421.053101,389.627045 452.977112,421.719299 
	C448.364716,427.250641 443.588898,432.482269 438.517639,437.839478 
z"/>
</svg>